<svg width="47" height="48" viewBox="0 0 47 48" fill="none" xmlns="http://www.w3.org/2000/svg">
<path d="M19.9855 4.05591L22.3145 1.7145C23.3007 0.723096 24.8953 0.723096 25.871 1.7145L46.2656 22.2071C47.2518 23.1985 47.2518 24.8016 46.2656 25.7825L25.871 46.2856C24.8848 47.277 23.2902 47.277 22.3145 46.2856L19.9855 43.9442C18.9888 42.9422 19.0098 41.3075 20.0275 40.3266L32.6692 28.2188H2.51786C1.12254 28.2188 0 27.0903 0 25.6876V22.3126C0 20.9098 1.12254 19.7813 2.51786 19.7813H32.6692L20.0275 7.67349C18.9993 6.69263 18.9783 5.05786 19.9855 4.05591Z" fill="#2B6CAA" fill-opacity="0.5"/>
</svg>
