<svg width="47" height="54" viewBox="0 0 47 54" fill="none" xmlns="http://www.w3.org/2000/svg">
<g clip-path="url(#clip0)">
<path d="M27.0145 46.9441L24.6855 49.2855C23.6993 50.2769 22.1047 50.2769 21.129 49.2855L0.734375 28.7929C-0.251785 27.8015 -0.251785 26.1984 0.734375 25.2175L21.129 4.7144C22.1152 3.723 23.7098 3.723 24.6855 4.7144L27.0145 7.05581C28.0112 8.05776 27.9902 9.69253 26.9725 10.6734L14.3308 22.7812L44.4821 22.7812C45.8775 22.7812 47 23.9097 47 25.3124V28.6874C47 30.0902 45.8775 31.2187 44.4821 31.2187L14.3308 31.2187L26.9725 43.3265C28.0007 44.3074 28.0217 45.9421 27.0145 46.9441Z" fill="#2B6CAA" fill-opacity="0.5"/>
</g>
<defs>
<clipPath id="clip0">
<rect width="47" height="54" fill="white" transform="translate(47 54) rotate(-180)"/>
</clipPath>
</defs>
</svg>
