<svg width="15" height="19" viewBox="0 0 15 19" fill="none" xmlns="http://www.w3.org/2000/svg">
<path fill-rule="evenodd" clip-rule="evenodd" d="M9.10274 3.06846C8.65163 2.50307 8.08774 2.27692 7.41108 2.27692C6.17052 2.27692 5.15552 3.29461 5.15552 4.53846V4.99077C5.83219 4.65153 6.62163 4.53846 7.41108 4.53846C11.1327 4.53846 14.1777 7.59153 14.1777 11.3231C14.1777 15.0546 11.1327 18.1077 7.41108 18.1077C3.68941 18.1077 0.644409 15.0546 0.644409 11.3231C0.644409 9.28769 1.54663 7.47846 2.89996 6.23461V4.53846C2.89996 2.05077 4.92996 0.0153809 7.41108 0.0153809C8.65163 0.0153809 9.89219 0.580766 10.7944 1.48538L11.5839 2.39L9.89219 3.86L9.10274 3.06846ZM9.66665 10.1923C9.66665 8.94845 8.65165 7.93075 7.41109 7.93075C6.17054 7.93075 5.15554 8.94845 5.15554 10.1923C5.15554 10.9838 5.60665 11.7754 6.28332 12.1146V14.7154H8.53887V12.1146C9.21554 11.7754 9.66665 10.9838 9.66665 10.1923Z" fill="#DAD9E2"/>
</svg>
