<svg width="17" height="18" viewBox="0 0 17 18" fill="none" xmlns="http://www.w3.org/2000/svg">
<path fill-rule="evenodd" clip-rule="evenodd" d="M14.8325 13.5458L10.5259 12.4663V10.9096C11.8732 9.90399 12.7815 8.10908 12.7815 6.43554V3.79105C12.7815 2.5472 11.771 1.52951 10.5252 1.52951H10.244L9.65227 0.342203C9.50942 0.054988 9.16583 -0.0731659 8.87787 0.0421726L5.32988 1.46468C4.46224 1.81296 3.75926 2.85477 3.75926 3.7918V6.43554C3.75926 8.10908 4.6675 9.90399 6.01481 10.9096V12.4663L1.70821 13.5458C0.704485 13.7976 0 14.7022 0 15.7395V17.7432H16.5407V15.7395C16.5407 14.7022 15.8363 13.7976 14.8325 13.5458Z" fill="#DAD9E2"/>
</svg>
