<svg width="49" height="35" viewBox="0 0 49 35" fill="none" xmlns="http://www.w3.org/2000/svg">
<path d="M31.3057 12.8602C31.3057 12.8602 33.9461 9.67077 35.0851 8.66559C36.2242 7.6604 39.7774 4.9892 42.4642 5.69154C45.1509 6.39388 47.5594 9.03426 47.5594 9.03426L45.9113 11.0471L47.1179 11.9071C47.1179 11.9071 46.201 19.0406 36.3463 17.9229L31.3057 12.8602Z" fill="#00819B"/>
<path d="M17.989 12.5907C17.989 12.5907 15.7409 9.48171 14.7249 8.51197C13.7088 7.54223 10.4814 4.98255 7.70153 5.7748C4.9217 6.56704 2.17903 9.29214 2.17903 9.29214L3.57959 11.2548L2.26322 12.1563C2.26322 12.1563 2.29254 19.2743 12.3068 17.8298L17.989 12.5907Z" fill="#00819B"/>
<path d="M15.3748 14.4918C15.3748 14.4918 14.0794 13.4228 13.3724 13.1288C13.3724 13.1288 13.4379 12.0226 12.0186 10.9542C12.0186 10.9542 11.0464 10.0947 11.6783 11.0489C12.3101 12.003 12.5595 12.2627 12.6056 12.6655C12.6056 12.6655 9.91893 11.6255 9.06513 11.5036C9.06513 11.5036 8.74405 10.4521 7.21528 9.65698C5.6865 8.86191 5.87411 9.28834 6.65908 9.89263C7.44405 10.4969 8.05297 10.712 8.28046 11.3412L6.1338 10.9292C6.1338 10.9292 3.19565 10.8097 5.93216 11.4906C8.66867 12.1714 7.49741 11.6699 10.0888 12.4758C10.0888 12.4758 9.59146 12.6839 7.99287 12.8528C6.39428 13.0216 4.65283 13.5819 8.05096 13.4276C11.4491 13.2733 10.3453 12.4723 11.5227 12.9245C12.7 13.3767 15.2693 14.932 15.2693 14.932C15.2693 14.932 15.9957 15.4162 16.0447 15.4829C16.0937 15.5496 15.3748 14.4918 15.3748 14.4918Z" fill="#83B5CB"/>
<path d="M33.8719 15.0271C33.8719 15.0271 35.2962 13.9191 36.0381 13.6059C36.0381 13.6059 36.1037 12.4987 37.652 11.39C37.652 11.39 38.7287 10.5009 37.9827 11.4742C37.2367 12.4476 36.9561 12.7147 36.8612 13.1194C36.8612 13.1194 39.6808 12.0037 40.5462 11.8579C40.5462 11.8579 40.9926 10.7946 42.618 9.95662C44.2435 9.11866 44.0052 9.54889 43.1473 10.1761C42.2894 10.8032 41.6505 11.0401 41.3515 11.6723L43.5505 11.2008C43.5505 11.2008 46.5066 10.9991 43.6847 11.7606C40.8627 12.5222 42.0967 11.9829 39.4054 12.8635C39.4054 12.8635 39.879 13.057 41.4601 13.1826C43.0413 13.3082 44.7193 13.8187 41.3339 13.7589C37.9484 13.6991 39.1489 12.8671 37.916 13.3518C36.6832 13.8366 33.9252 15.4671 33.9252 15.4671C33.9252 15.4671 33.1402 15.9734 33.0832 16.0406C33.0263 16.1077 33.8719 15.0271 33.8719 15.0271Z" fill="#83B5CB"/>
<path d="M12.6062 19.7167C12.6062 19.7167 11.5138 27.6178 14.9626 31.295C14.9626 31.295 14.6075 36.1624 17.3815 32.5584C17.3815 32.5584 18.1098 31.8595 19.4103 31.8645L23.7273 31.9258L24.4607 20.1478L12.6062 19.7167Z" fill="#83B5CB"/>
<path d="M36.4297 19.5244C36.4297 19.5244 36.5394 27.4057 32.6242 31.2038C32.6242 31.2038 32.3732 36.0695 30.0428 32.5493C30.0428 32.5493 29.4001 31.8729 28.0963 31.9207L23.7628 32.124L24.4962 20.346L36.4297 19.5244Z" fill="#83B5CB"/>
<path d="M36.4152 19.4852C36.2184 22.7035 34.7749 25.8095 32.4024 28.1199C30.0299 30.4303 26.9227 31.7558 23.7643 31.8049C20.606 31.854 17.6552 30.6226 15.5611 28.3817C13.4671 26.1407 12.4012 23.0737 12.5981 19.8554C12.6009 19.8101 12.6037 19.7648 12.6064 19.7195C12.6793 19.8423 16.2562 25.7491 24.317 25.6238C32.3375 25.4991 36.2769 19.8624 36.4182 19.3677C36.4201 19.4065 36.4176 19.4464 36.4152 19.4852Z" fill="#83B5CB"/>
<path d="M36.1759 19.9074L12.3644 20.2767C12.5612 17.0574 14.0048 13.9505 16.3776 11.6395C18.7504 9.32854 21.8581 8.00271 25.0169 7.95373C28.1758 7.90474 31.1271 9.13661 33.2216 11.3783C35.3161 13.6201 36.3822 16.688 36.1854 19.9073L36.1759 19.9074Z" fill="#AAE4E4"/>
<path d="M36.4506 19.4704C36.4514 19.4732 36.4512 19.4763 36.4501 19.4792C36.3092 19.9835 32.359 25.7229 24.2677 25.8234C16.1358 25.9245 12.5148 19.8845 12.4409 19.7589L36.4554 19.4604C36.4554 19.4604 36.4507 19.4682 36.4506 19.4704Z" fill="#AAE4E4"/>
<path d="M36.5366 19.8154C36.5369 19.8179 36.5368 19.8204 36.5363 19.8229C36.5363 19.8229 36.5363 19.8229 36.5366 19.8154Z" fill="white"/>
<g style="mix-blend-mode:overlay" opacity="0.3">
<g style="mix-blend-mode:overlay" opacity="0.3">
<path d="M14.9679 19.7983C14.9655 19.8473 14.9631 19.8975 14.9608 19.9466L12.2764 19.8095L14.9679 19.7983Z" fill="black"/>
</g>
<g style="mix-blend-mode:overlay" opacity="0.3">
<path d="M19.3041 31.7929C18.035 31.7959 17.327 32.4772 17.327 32.4772C14.5866 36.0471 14.9287 31.2201 14.9287 31.2201C11.5068 27.5659 12.5721 19.7323 12.5721 19.7323L15.1432 19.8307C14.8651 23.27 15.9761 27.52 19.3041 31.7929Z" fill="black"/>
</g>
<g style="mix-blend-mode:overlay" opacity="0.3">
<path d="M20.1898 9.06143C19.694 9.54124 15.4642 13.8034 14.9077 19.9467L12.3135 19.9864C12.481 17.6643 13.3168 15.3909 14.7172 13.4486C16.1175 11.5062 18.0205 9.98065 20.1898 9.06143Z" fill="black"/>
</g>
</g>
<path d="M36.5635 19.8154C36.5638 19.8178 36.5637 19.8203 36.5631 19.8228C36.5631 19.8228 36.5631 19.8228 36.5635 19.8154Z" fill="black"/>
<path d="M24.6153 9.85308C24.6153 9.85308 23.9311 7.02494 23.7453 5.52954C23.7453 5.52954 20.9864 2.94442 21.1436 0.392151C21.1436 0.392151 23.4828 0.986125 24.2447 4.54906C24.2447 4.54906 25.6651 3.2912 27.1078 3.3473C27.1078 3.3473 26.7215 5.14087 24.4433 5.51853C24.4433 5.51853 24.1739 6.11896 24.5639 8.17156C24.9624 10.2713 24.9262 10.6757 24.6153 9.85308Z" fill="#8D9CDF"/>
<path d="M20.9151 13.1599C21.5889 13.1487 22.2345 13.3481 22.7702 13.7329C23.3058 14.1177 23.7075 14.6707 23.9245 15.3219C24.1415 15.973 24.1639 16.6932 23.9891 17.3912C23.8142 18.0892 23.4499 18.7338 22.9421 19.2434C22.4344 19.7531 21.806 20.1048 21.1365 20.2543C20.467 20.4037 19.7864 20.3441 19.1809 20.0829C18.5753 19.8218 18.0719 19.3709 17.7343 18.7872C17.3968 18.2036 17.2403 17.5134 17.2845 16.8039C17.3439 15.8525 17.7597 14.9341 18.4406 14.2508C19.1215 13.5674 20.0116 13.175 20.9151 13.1599Z" fill="white"/>
<path d="M28.5318 13.1652C29.2056 13.1537 29.8513 13.353 30.3871 13.7376C30.9229 14.1223 31.3248 14.6752 31.542 15.3264C31.7591 15.9775 31.7817 16.6977 31.607 17.3958C31.4322 18.0939 31.068 18.7386 30.5603 19.2483C30.0525 19.758 29.4242 20.1099 28.7547 20.2594C28.0851 20.4089 27.4045 20.3494 26.7989 20.0883C26.1932 19.8272 25.6897 19.3763 25.3521 18.7926C25.0146 18.2089 24.858 17.5187 24.9022 16.8091C24.9616 15.858 25.3773 14.9397 26.0579 14.2564C26.7385 13.5731 27.6284 13.1805 28.5318 13.1652Z" fill="white"/>
<path d="M20.8013 14.9734C21.1344 14.9679 21.4535 15.0665 21.7183 15.2567C21.9831 15.4469 22.1817 15.7203 22.289 16.0421C22.3962 16.364 22.4074 16.72 22.3209 17.0651C22.2345 17.4102 22.0544 17.7288 21.8034 17.9807C21.5524 18.2326 21.2417 18.4065 20.9108 18.4804C20.5798 18.5543 20.2434 18.5248 19.944 18.3957C19.6447 18.2666 19.3958 18.0437 19.229 17.7552C19.0621 17.4667 18.9847 17.1255 19.0066 16.7748C19.0359 16.3045 19.2415 15.8505 19.5781 15.5127C19.9146 15.1749 20.3547 14.9809 20.8013 14.9734Z" fill="#00819B"/>
<path d="M21.3854 15.6701C21.4963 15.6682 21.6025 15.7011 21.6907 15.7644C21.7789 15.8277 21.845 15.9187 21.8807 16.0259C21.9164 16.1331 21.9201 16.2516 21.8913 16.3664C21.8625 16.4813 21.8026 16.5874 21.719 16.6713C21.6354 16.7552 21.532 16.813 21.4218 16.8376C21.3117 16.8622 21.1996 16.8524 21.1 16.8094C21.0003 16.7665 20.9175 16.6923 20.8619 16.5962C20.8064 16.5002 20.7806 16.3866 20.7879 16.2698C20.7976 16.1132 20.8661 15.9621 20.9781 15.8496C21.0902 15.7371 21.2367 15.6726 21.3854 15.6701Z" fill="white"/>
<path d="M28.418 14.9794C28.7511 14.9738 29.0702 15.0724 29.335 15.2626C29.5998 15.4528 29.7984 15.7262 29.9057 16.0481C30.0129 16.37 30.0241 16.7259 29.9376 17.071C29.8512 17.4161 29.6711 17.7347 29.4201 17.9866C29.1691 18.2386 28.8584 18.4124 28.5275 18.4863C28.1965 18.5602 27.8601 18.5307 27.5607 18.4016C27.2614 18.2726 27.0125 18.0497 26.8457 17.7611C26.6788 17.4726 26.6014 17.1314 26.6233 16.7807C26.6377 16.5478 26.6955 16.3164 26.7935 16.0998C26.8915 15.8832 27.0278 15.6856 27.1945 15.5183C27.3612 15.351 27.555 15.2173 27.765 15.1248C27.9749 15.0323 28.1968 14.9829 28.418 14.9794Z" fill="#00819B"/>
<path d="M28.9859 15.676C29.0969 15.6739 29.2032 15.7065 29.2915 15.7697C29.3798 15.8329 29.4461 15.9239 29.482 16.031C29.5179 16.1381 29.5217 16.2567 29.493 16.3716C29.4644 16.4866 29.4045 16.5928 29.321 16.6768C29.2374 16.7607 29.134 16.8187 29.0238 16.8434C28.9136 16.8681 28.8015 16.8583 28.7018 16.8154C28.6021 16.7725 28.5191 16.6983 28.4635 16.6022C28.4079 16.5061 28.3822 16.3925 28.3894 16.2757C28.3992 16.1193 28.4675 15.9683 28.5793 15.8559C28.6911 15.7434 28.8374 15.6787 28.9859 15.676Z" fill="white"/>
<path d="M24.38 20.6391C24.7 20.6335 25.0067 20.728 25.2612 20.9106C25.5157 21.0932 25.7066 21.3557 25.8098 21.6649C25.913 21.9741 25.9238 22.3161 25.8409 22.6476C25.758 22.9792 25.585 23.2854 25.344 23.5275C25.1029 23.7696 24.8045 23.9367 24.4865 24.0078C24.1686 24.0788 23.8453 24.0506 23.5577 23.9266C23.2701 23.8027 23.031 23.5885 22.8706 23.3114C22.7103 23.0342 22.6359 22.7064 22.6569 22.3694C22.6851 21.9178 22.8824 21.4819 23.2055 21.1574C23.5286 20.8329 23.951 20.6465 24.38 20.6391Z" fill="#EF5343"/>
<path d="M26.0017 20.6284L22.7251 20.6795L22.6192 22.4114L25.8958 22.3603L26.0017 20.6284Z" fill="#EF5343"/>
<path d="M22.2282 12.9853C21.8149 12.603 21.2763 12.3979 20.7069 12.4061C20.1374 12.4142 19.5734 12.6351 19.1138 13.0299C19.2412 12.6788 19.4675 12.3711 19.7601 12.1509C20.0528 11.9308 20.3968 11.8095 20.7428 11.8046C21.0887 11.7996 21.4188 11.9112 21.6857 12.1234C21.9526 12.3355 22.1425 12.6373 22.2282 12.9853Z" fill="#00819B"/>
<path d="M30.0866 12.821C29.6733 12.4387 29.1347 12.2336 28.5653 12.2418C27.9958 12.2499 27.4318 12.4708 26.9722 12.8656C27.0996 12.5145 27.3259 12.2067 27.6185 11.9866C27.9112 11.7665 28.2552 11.6452 28.6012 11.6402C28.9471 11.6353 29.2772 11.7469 29.5441 11.959C29.811 12.1712 30.0009 12.4729 30.0866 12.821Z" fill="#00819B"/>
<path d="M20.9128 20.7002C20.8843 21.1582 20.3868 21.5373 19.8009 21.547C19.2149 21.5567 18.7636 21.1933 18.7921 20.7352C18.8206 20.2772 19.3192 19.897 19.9041 19.8873C20.489 19.8776 20.9413 20.2421 20.9128 20.7002Z" fill="#EF5343"/>
<path d="M29.8449 20.7435C29.8176 21.1835 29.3135 21.5435 28.7196 21.5532C28.1256 21.563 27.6655 21.2156 27.6926 20.7789C27.7197 20.3422 28.2229 19.9801 28.8179 19.9703C29.4129 19.9605 29.8721 20.3068 29.8449 20.7435Z" fill="#EF5343"/>
</svg>
