<svg width="320" height="220" viewBox="0 0 320 220" fill="none" xmlns="http://www.w3.org/2000/svg">
<path d="M263.255 67.6991L264.363 71.4724L264.052 71.5182L255.705 72.7539L251.837 73.3296L251.715 73.3472L250.802 73.4828L250.861 69.536L250.9 67.02C251.266 67.0226 251.649 67.0082 252.068 66.9447L255.223 66.468C255.452 66.4332 255.546 66.0207 255.584 65.4556C255.42 65.4916 255.253 65.5243 255.085 65.5499L251.93 66.0266C251.511 66.0901 251.127 66.1058 250.762 66.096C248.412 66.0475 247.194 64.5774 246.459 62.3941C246.255 61.7956 246.088 61.1433 245.946 60.4498C245.817 59.8402 245.71 59.2017 245.611 58.539L244.863 53.5732C244.786 53.0591 244.764 52.5503 244.78 52.0493C245.748 52.3951 246.914 52.5405 248.3 52.3126C251.59 51.7723 253.212 50.1948 254.018 48.8071C254.069 49.7783 254.336 50.7121 255.051 51.291C257.107 52.9576 257.348 54.2758 257.466 55.0695C257.587 55.8632 257.973 56.9765 257.973 56.9765C257.973 56.9765 258.311 52.8862 259.343 53.2922C261.042 53.9595 261.773 59.74 261.782 59.812C261.781 59.814 261.78 59.8159 261.78 59.8186C261.714 60.0268 261.638 60.2324 261.556 60.4328C261.477 60.628 261.379 60.8126 261.285 61.0006L263.255 67.6991ZM254.593 44.1157C254.649 44.1236 254.703 44.1367 254.759 44.1478C254.702 44.136 254.647 44.1223 254.59 44.1144C254.526 44.1026 254.461 44.0974 254.397 44.0869C254.463 44.0974 254.528 44.1098 254.593 44.1216V44.1157ZM251.857 44.0719C252.108 44.0339 252.358 44.0097 252.606 43.9946C252.357 44.009 252.106 44.0339 251.855 44.0719C249.581 44.4157 247.666 45.6514 246.397 47.3691C246.394 47.3723 246.392 47.3763 246.389 47.3795C246.392 47.3756 246.397 47.3743 246.399 47.3704C247.668 45.6514 249.583 44.4163 251.857 44.0719ZM208.023 60.8342C208.033 60.7131 208.03 60.569 208.023 60.4132C207.926 58.5527 206.617 54.4821 205.457 54.8168C204.461 55.1036 206.524 57.3772 205.331 57.6261C204.006 57.9011 200.735 52.8004 199.918 53.8109C198.989 54.9589 203.272 57.2954 202.404 58.0537C202.357 58.095 202.299 58.1107 202.238 58.1185C202.229 58.1192 202.224 58.1277 202.215 58.1284C201.128 58.1762 198.126 53.5594 197.249 54.7192C196.315 55.9542 201.438 58.4964 200.672 59.3562C199.906 60.2206 197.004 55.8613 196.123 56.9581C195.138 58.1814 200.72 60.867 200.194 61.3804C199.314 62.2402 196.917 58.7518 196.093 59.662C195.604 60.1997 197.245 61.6646 199.257 62.9841C201.035 64.1504 203.059 65.0921 204.396 65.0404C204.628 65.0312 204.842 65.0122 205.045 64.986C205.201 65.3586 205.393 65.7417 205.617 66.1333C207.239 64.9533 208.448 63.2546 209.026 61.3273C208.676 61.1839 208.335 61.0543 208.012 60.9456C208.015 60.9082 208.021 60.8742 208.023 60.8342ZM274.752 29.2787C274.79 29.077 274.82 28.8641 274.843 28.6316C274.969 27.2957 274.146 25.2166 273.085 23.3705C271.884 21.2822 270.519 19.5566 269.956 20.0157C269.002 20.7904 272.341 23.3863 271.436 24.2192C270.894 24.7169 268.535 18.9764 267.262 19.8932C266.119 20.7144 270.297 23.865 269.393 24.5833C268.494 25.3011 266.251 20.0295 264.969 20.8952C263.765 21.7092 268.193 24.9743 268.084 26.06C268.083 26.0692 268.074 26.0731 268.073 26.0829C268.061 26.1425 268.043 26.1995 267.999 26.2447C267.196 27.0711 265.11 22.6522 263.915 23.5166C262.863 24.2775 267.756 27.8406 267.408 29.1516C267.093 30.3317 264.946 28.1379 264.604 29.1189C264.206 30.2609 268.185 31.8005 270.032 32.0022C270.186 32.0192 270.33 32.0297 270.451 32.0271C270.491 32.0258 270.525 32.0232 270.564 32.0218L272.727 35.8979C274.305 34.3728 275.787 32.7232 277.149 30.9446C277.297 31.0343 277.446 31.1293 277.596 31.2242C276.615 30.3952 275.657 29.7213 274.752 29.2787ZM62.047 149.574C61.5396 158.159 60.5809 170.578 60.6638 179.099C59.0234 181.188 57.7036 183.404 57.3164 185.191C56.66 188.213 54.0374 195.646 52.5818 201.168L56.248 203.461C60.4856 197.374 66.3009 186.607 67.3556 182.751C71.9511 174.02 77.609 157.799 78.825 149.434C76.2487 150.212 68.7192 152.064 62.047 149.574ZM59.2768 148.262C53.3563 144.957 49.1089 140.479 47.283 138.35C42.7358 145.641 36.4137 155.446 33.1975 162.018C30.9687 160.198 27.5937 158.96 25.0175 159.018C21.9593 159.086 15.5261 159.478 10.8725 160.298L9.6102 164.857C9.6102 164.857 9.50702 164.909 9.33984 164.998C12.5744 165.98 17.2306 166.808 20.8876 167.914C26.7173 169.676 32.8501 170.216 34.5153 168.476C40.1498 165.874 51.6669 156.21 59.2768 148.262ZM59.4185 44.3875C59.4766 44.3574 59.5341 44.3266 59.5929 44.2971C59.536 44.3253 59.476 44.3502 59.4192 44.3796C59.3702 44.4032 59.3232 44.4314 59.2748 44.4582C59.3225 44.432 59.3689 44.4045 59.4165 44.3816L59.4185 44.3875ZM57.2269 61.5199C57.351 61.6986 57.4855 61.8722 57.6233 62.0398C57.989 62.4858 58.4069 62.8826 58.8536 63.2421L61.1314 70.3421L73.662 82.7405L68.9275 70.1954C68.9275 70.1954 68.7022 65.4497 68.6173 65.4169L65.4644 65.9054C65.2352 65.9408 65.0236 65.5754 64.8185 65.0469C64.985 65.0332 65.1548 65.0135 65.3227 64.988L68.4762 64.4988C68.8948 64.434 69.2657 64.3338 69.6125 64.2159C71.8407 63.4668 72.5656 61.6993 72.6185 59.3955C72.6341 58.7629 72.6002 58.091 72.5297 57.3864C72.4715 56.7656 72.3834 56.1245 72.2808 55.4618L71.5168 50.4986C71.4378 49.9852 71.3078 49.4928 71.1432 49.0193C70.3217 49.6388 69.2527 50.126 67.863 50.3238C64.5612 50.792 62.544 49.7711 61.3626 48.6879C61.6029 49.6296 61.6258 50.6014 61.1158 51.3683C59.6477 53.5745 59.811 54.9032 59.9331 55.6975C60.0552 56.4899 60.0167 57.6693 60.0167 57.6693C60.0167 57.6693 58.4781 53.8659 57.6128 54.5614C56.1892 55.7067 57.2119 61.4445 57.2249 61.514C57.2249 61.5159 57.2256 61.5179 57.2269 61.5199ZM108.256 29.1234C107.13 28.6369 106.388 32.8077 105.232 32.3899C104.541 32.141 108.514 27.3796 107.113 26.6743C105.858 26.041 105.015 31.2144 103.962 30.7449C102.91 30.2806 106.523 25.84 105.163 25.1033C103.885 24.4118 103.058 29.8595 102.049 30.2681C102.041 30.2708 102.033 30.2655 102.024 30.2688C101.966 30.2871 101.907 30.2963 101.846 30.2793C100.743 29.9492 103.677 26.0443 102.357 25.3849C101.197 24.804 100.324 30.8045 99.0047 31.1044C97.8155 31.3729 98.7552 28.4476 97.7306 28.5996C96.5368 28.7764 97.026 33.0251 97.7051 34.7585C97.762 34.9045 97.8201 35.0361 97.8789 35.1422C97.8978 35.1776 97.9167 35.2058 97.935 35.2392C97.8567 35.3125 97.8534 36.486 97.8423 37.5639C97.9461 37.4427 98.0493 37.3223 98.1499 37.2103C99.136 37.8619 100.238 38.3392 101.407 38.6261C101.399 38.776 101.388 38.9332 101.377 39.091C102.089 38.2934 102.813 37.5089 102.918 37.4663C104.156 36.9581 105.609 35.2614 106.747 33.4612C108.034 31.4246 108.924 29.4109 108.256 29.1234ZM39.707 38.0288C39.7567 38.0937 39.8879 38.6444 40.0362 39.334C41.2495 39.7564 42.5425 39.9928 43.8859 39.9751C43.9133 39.9744 43.9401 39.9698 43.9675 39.9692C44.0204 40.144 44.0694 40.3392 44.117 40.5455C44.6277 39.6503 45.158 38.7263 45.1292 38.628C45.1626 38.609 45.1926 38.5933 45.2272 38.5724C45.331 38.5102 45.4473 38.4257 45.5694 38.3294C47.029 37.1762 49.5889 33.7559 48.6472 32.9989C47.8394 32.3493 47.1778 35.3498 46.2871 34.5162C45.2984 33.5902 47.5651 27.9683 46.2708 27.8825C44.8001 27.7843 45.3676 32.64 44.2496 32.3663C44.1882 32.3519 44.1425 32.3133 44.1014 32.2687C44.0955 32.2615 44.0857 32.2622 44.0798 32.255C43.4144 31.3925 45.4427 26.2702 43.991 26.2205C42.4459 26.1687 43.3314 31.8306 42.1886 31.699C41.0432 31.5713 42.92 26.6795 41.5179 26.5905C39.9532 26.4896 40.987 32.6106 40.2647 32.4763C39.0566 32.2517 40.5155 28.2761 39.2982 28.1254C38.5773 28.0351 38.3324 30.2243 38.4179 32.6335C38.4937 34.7631 38.894 36.9634 39.707 38.0288Z" fill="#FFD2BB"/>
<path d="M133.395 24.5369V30.1647C133.395 30.6499 133.003 31.0429 132.519 31.0429C132.036 31.0429 131.643 30.6499 131.643 30.1647V24.5369C131.643 24.0523 132.036 23.6587 132.519 23.6587C133.003 23.6587 133.395 24.0523 133.395 24.5369ZM132.519 44.0581C132.036 44.0581 131.643 44.4517 131.643 44.937V50.5648C131.643 51.0501 132.036 51.4436 132.519 51.4436C133.003 51.4436 133.395 51.0501 133.395 50.5648V44.937C133.395 44.4511 133.003 44.0581 132.519 44.0581ZM126.029 37.5502C126.029 37.0656 125.637 36.672 125.153 36.672H119.541C119.058 36.672 118.665 37.0656 118.665 37.5502C118.665 38.0354 119.058 38.429 119.541 38.429H125.153C125.637 38.429 126.029 38.0354 126.029 37.5502ZM145.497 36.672H139.885C139.401 36.672 139.009 37.0656 139.009 37.5502C139.009 38.0354 139.401 38.429 139.885 38.429H145.497C145.981 38.429 146.373 38.0354 146.373 37.5502C146.373 37.0656 145.981 36.672 145.497 36.672ZM123.961 27.7273C123.619 27.3842 123.065 27.3842 122.723 27.7273C122.381 28.0698 122.381 28.6264 122.723 28.9689L126.692 32.9491C126.863 33.1207 127.086 33.2065 127.311 33.2065C127.535 33.2065 127.759 33.1207 127.93 32.9491C128.272 32.6053 128.272 32.05 127.93 31.7069L123.961 27.7273ZM138.347 42.1525C138.005 41.81 137.45 41.81 137.108 42.1525C136.766 42.4956 136.766 43.0516 137.108 43.3941L141.077 47.3743C141.248 47.5459 141.472 47.6317 141.696 47.6317C141.92 47.6317 142.145 47.5459 142.315 47.3743C142.657 47.0312 142.657 46.4752 142.315 46.1321L138.347 42.1525ZM126.692 42.1525L122.723 46.1321C122.381 46.4752 122.381 47.0312 122.723 47.3743C122.894 47.5459 123.118 47.6317 123.342 47.6317C123.567 47.6317 123.791 47.5459 123.961 47.3743L127.93 43.3941C128.272 43.0516 128.272 42.4956 127.93 42.1525C127.589 41.8094 127.034 41.8094 126.692 42.1525ZM137.728 33.2065C137.952 33.2065 138.176 33.1207 138.347 32.9491L142.315 28.9689C142.657 28.6264 142.657 28.0698 142.315 27.7273C141.974 27.3842 141.419 27.3842 141.077 27.7273L137.108 31.7069C136.766 32.05 136.766 32.6053 137.108 32.9491C137.279 33.1214 137.503 33.2065 137.728 33.2065ZM15.5242 120.371C15.041 120.371 14.6485 120.765 14.6485 121.249V126.877C14.6485 127.362 15.041 127.755 15.5242 127.755C16.0081 127.755 16.4 127.362 16.4 126.877V121.249C16.3993 120.765 16.0081 120.371 15.5242 120.371ZM15.5242 140.77C15.041 140.77 14.6485 141.164 14.6485 141.649V147.277C14.6485 147.762 15.041 148.156 15.5242 148.156C16.0081 148.156 16.4 147.762 16.4 147.277V141.649C16.3993 141.164 16.0081 140.77 15.5242 140.77ZM9.0343 134.263C9.0343 133.778 8.64182 133.385 8.15856 133.385H2.54631C2.06306 133.385 1.66992 133.778 1.66992 134.263C1.66992 134.748 2.06306 135.142 2.54631 135.142H8.15856C8.64247 135.142 9.0343 134.748 9.0343 134.263ZM28.5022 133.385H22.8899C22.4067 133.385 22.0142 133.778 22.0142 134.263C22.0142 134.748 22.4067 135.142 22.8899 135.142H28.5022C28.9861 135.142 29.3786 134.748 29.3786 134.263C29.3779 133.778 28.9861 133.385 28.5022 133.385ZM6.96611 124.44C6.62457 124.097 6.07013 124.097 5.72794 124.44C5.38639 124.782 5.38639 125.339 5.72794 125.681L9.69714 129.662C9.86823 129.833 10.0916 129.919 10.3162 129.919C10.5402 129.919 10.7642 129.833 10.9353 129.662C11.2775 129.318 11.2775 128.763 10.9353 128.419L6.96611 124.44ZM21.352 138.864C21.0092 138.522 20.4547 138.522 20.1125 138.864C19.771 139.208 19.771 139.764 20.1125 140.106L24.0817 144.086C24.2528 144.258 24.4768 144.344 24.7008 144.344C24.9248 144.344 25.1495 144.258 25.3199 144.086C25.6621 143.743 25.6621 143.187 25.3199 142.844L21.352 138.864ZM9.69714 138.864L5.72794 142.844C5.38639 143.187 5.38639 143.743 5.72794 144.086C5.89969 144.258 6.12303 144.344 6.34767 144.344C6.57232 144.344 6.79632 144.258 6.96611 144.086L10.9353 140.106C11.2775 139.764 11.2775 139.208 10.9353 138.864C10.5938 138.522 10.0387 138.522 9.69714 138.864ZM20.7323 129.919C20.9563 129.919 21.1809 129.833 21.352 129.662L25.3199 125.681C25.6621 125.339 25.6621 124.782 25.3199 124.44C24.9784 124.097 24.4233 124.097 24.0817 124.44L20.1125 128.419C19.771 128.763 19.771 129.318 20.1125 129.662C20.2843 129.833 20.5076 129.919 20.7323 129.919ZM101.09 157.722C100.607 157.722 100.214 158.116 100.214 158.6V164.228C100.214 164.714 100.607 165.106 101.09 165.106C101.574 165.106 101.966 164.714 101.966 164.228V158.6C101.966 158.116 101.574 157.722 101.09 157.722ZM101.09 178.121C100.607 178.121 100.214 178.515 100.214 179V184.628C100.214 185.113 100.607 185.507 101.09 185.507C101.574 185.507 101.966 185.113 101.966 184.628V179C101.966 178.515 101.574 178.121 101.09 178.121ZM94.6007 171.614C94.6007 171.129 94.2082 170.736 93.7249 170.736H88.1127C87.6294 170.736 87.2363 171.129 87.2363 171.614C87.2363 172.099 87.6294 172.493 88.1127 172.493H93.7249C94.2082 172.493 94.6007 172.099 94.6007 171.614ZM114.068 170.736H108.456C107.972 170.736 107.58 171.129 107.58 171.614C107.58 172.099 107.972 172.493 108.456 172.493H114.068C114.552 172.493 114.944 172.099 114.944 171.614C114.944 171.129 114.552 170.736 114.068 170.736ZM92.5325 161.791C92.1909 161.448 91.6365 161.448 91.2943 161.791C90.9527 162.133 90.9527 162.69 91.2943 163.033L95.2635 167.013C95.4346 167.184 95.6579 167.27 95.8826 167.27C96.1066 167.27 96.3306 167.184 96.5017 167.013C96.8439 166.669 96.8439 166.114 96.5017 165.771L92.5325 161.791ZM106.918 176.215C106.576 175.873 106.021 175.873 105.679 176.215C105.337 176.559 105.337 177.115 105.679 177.457L109.648 181.437C109.819 181.609 110.043 181.695 110.267 181.695C110.491 181.695 110.716 181.609 110.886 181.437C111.228 181.094 111.228 180.538 110.886 180.195L106.918 176.215ZM95.2628 176.215L91.2936 180.195C90.9521 180.538 90.9521 181.094 91.2936 181.437C91.4654 181.609 91.6887 181.695 91.9134 181.695C92.138 181.695 92.362 181.609 92.5318 181.437L96.501 177.457C96.8432 177.115 96.8432 176.559 96.501 176.215C96.1595 175.873 95.605 175.873 95.2628 176.215ZM106.299 167.27C106.523 167.27 106.747 167.184 106.918 167.013L110.886 163.033C111.228 162.69 111.228 162.133 110.886 161.791C110.545 161.448 109.99 161.448 109.648 161.791L105.679 165.771C105.337 166.114 105.337 166.669 105.679 167.013C105.85 167.184 106.074 167.27 106.299 167.27ZM306.146 83.0686C305.662 83.0686 305.27 83.4622 305.27 83.9468V89.5746C305.27 90.0599 305.662 90.4528 306.146 90.4528C306.63 90.4528 307.021 90.0599 307.021 89.5746V83.9468C307.021 83.4622 306.63 83.0686 306.146 83.0686ZM306.146 103.467C305.662 103.467 305.27 103.861 305.27 104.346V109.974C305.27 110.459 305.662 110.853 306.146 110.853C306.63 110.853 307.021 110.459 307.021 109.974V104.346C307.021 103.861 306.63 103.467 306.146 103.467ZM299.656 96.9601C299.656 96.4755 299.264 96.0819 298.781 96.0819H293.168C292.685 96.0819 292.292 96.4755 292.292 96.9601C292.292 97.4454 292.685 97.8389 293.168 97.8389H298.781C299.264 97.8389 299.656 97.4454 299.656 96.9601ZM319.124 96.0819H313.511C313.028 96.0819 312.636 96.4755 312.636 96.9601C312.636 97.4454 313.028 97.8389 313.511 97.8389H319.124C319.607 97.8389 320 97.4454 320 96.9601C320 96.4755 319.607 96.0819 319.124 96.0819ZM297.588 87.1373C297.247 86.7941 296.692 86.7941 296.35 87.1373C296.008 87.4797 296.008 88.0364 296.35 88.3789L300.319 92.3591C300.49 92.5307 300.714 92.6164 300.938 92.6164C301.162 92.6164 301.386 92.5307 301.557 92.3591C301.9 92.0153 301.9 91.46 301.557 91.1168L297.588 87.1373ZM311.974 101.562C311.631 101.219 311.077 101.219 310.735 101.562C310.393 101.905 310.393 102.461 310.735 102.803L314.704 106.784C314.875 106.955 315.099 107.041 315.323 107.041C315.547 107.041 315.772 106.955 315.942 106.784C316.284 106.44 316.284 105.884 315.942 105.541L311.974 101.562ZM300.319 101.562L296.349 105.541C296.008 105.884 296.008 106.44 296.349 106.784C296.521 106.955 296.744 107.041 296.969 107.041C297.194 107.041 297.418 106.955 297.588 106.784L301.557 102.803C301.899 102.461 301.899 101.905 301.557 101.562C301.215 101.219 300.661 101.219 300.319 101.562ZM311.354 92.6164C311.578 92.6164 311.803 92.5307 311.974 92.3591L315.942 88.3789C316.284 88.0364 316.284 87.4797 315.942 87.1373C315.6 86.7941 315.045 86.7941 314.704 87.1373L310.735 91.1168C310.393 91.46 310.393 92.0153 310.735 92.3591C310.906 92.5307 311.13 92.6164 311.354 92.6164Z" fill="#2CB492"/>
<path d="M165.088 14.4069C168.457 14.4069 168.457 19.6457 165.088 19.6457C161.719 19.6457 161.719 14.4069 165.088 14.4069ZM235.023 102.651L185.797 95.4781L163.782 50.7481L141.768 95.4788L92.5411 102.652L128.161 137.47L119.752 186.634L143.011 174.371V193.783C143.011 194.688 143.742 195.42 144.644 195.42C145.545 195.42 146.276 194.688 146.276 193.783V172.65L162.604 164.042V213.484C162.604 214.388 163.335 215.121 164.237 215.121C165.139 215.121 165.869 214.388 165.869 213.484V164.522L182.197 173.13V193.783C182.197 194.688 182.928 195.42 183.83 195.42C184.732 195.42 185.463 194.688 185.463 193.783V174.851L207.812 186.634L199.403 137.47L235.023 102.651ZM68.4379 24.8846C65.0689 24.8846 65.0689 30.1234 68.4379 30.1234C71.807 30.1234 71.807 24.8846 68.4379 24.8846ZM221.25 165.024C217.881 165.024 217.881 170.263 221.25 170.263C224.619 170.263 224.619 165.024 221.25 165.024ZM213.414 32.7429C216.783 32.7429 216.783 27.504 213.414 27.504C210.045 27.504 210.045 32.7429 213.414 32.7429Z" fill="#E84393"/>
<path d="M128.946 3.01433V3.99662C128.946 5.4242 127.758 6.61604 126.334 6.61604C124.91 6.61604 123.722 5.4242 123.722 3.99662V3.01433C123.722 1.58609 124.91 0.394897 126.334 0.394897C127.758 0.394897 128.946 1.58609 128.946 3.01433ZM257.974 56.9765C257.974 56.9765 258.312 52.8863 259.343 53.2923C261.043 53.9596 261.773 59.74 261.783 59.812L261.783 59.8186C262.158 58.6392 262.276 57.3576 262.079 56.0492L261.331 51.0834C260.804 47.5728 258.172 44.9081 254.918 44.1799C254.866 44.1695 254.812 44.1603 254.758 44.1492C254.703 44.138 254.648 44.1249 254.592 44.1171V44.123C254.527 44.1112 254.463 44.0987 254.397 44.0883C254.282 44.0699 254.167 44.0522 254.051 44.0391C253.907 44.0228 253.762 44.0116 253.617 44.0025C253.525 43.9966 253.434 43.9887 253.341 43.9861C253.166 43.9809 252.991 43.9848 252.814 43.9907C252.744 43.9927 252.676 43.9913 252.607 43.9959C252.358 44.0103 252.108 44.0352 251.858 44.0732C249.583 44.417 247.668 45.6527 246.399 47.3717C246.397 47.3756 246.392 47.377 246.39 47.3809C245.114 49.073 240.393 45.8799 240.736 48.1549C240.736 48.1549 241.869 51.0094 244.781 52.0494C245.749 52.3951 246.915 52.5405 248.3 52.3126C251.591 51.7724 253.213 50.1948 254.018 48.8072C254.069 49.7783 254.337 50.7121 255.052 51.291C257.108 52.9576 257.348 54.2759 257.467 55.0696C257.587 55.8632 257.974 56.9765 257.974 56.9765ZM19.5673 109.423C16.1983 109.423 16.1983 114.662 19.5673 114.662C22.9364 114.662 22.9364 109.423 19.5673 109.423ZM195.236 72.6282C191.867 72.6282 191.867 77.8671 195.236 77.8671C198.604 77.8671 198.604 72.6282 195.236 72.6282ZM264.351 159.785C262.927 159.785 261.739 160.976 261.739 162.405V163.387C261.739 164.814 262.927 166.006 264.351 166.006C265.775 166.006 266.963 164.814 266.963 163.387V162.405C266.963 160.977 265.775 159.785 264.351 159.785ZM80.064 76.0459C80.0431 76.0603 80.0215 76.0715 80.0006 76.0852C80.1345 76.395 80.2782 76.6314 80.4414 76.7564C85.0591 80.2986 85.7565 83.7274 84.4975 87.3462C84.1226 88.4241 83.7367 89.8176 83.4409 91.2674C84.299 89.9525 84.8416 88.6323 84.9814 87.3134C85.3484 83.859 85.5561 78.5364 84.3675 72.4488C82.3529 74.2359 80.7079 75.5967 80.064 76.0459ZM51.8727 83.1033C51.2517 82.8099 50.6777 82.3889 50.1931 81.8414C49.2984 80.831 40.6632 74.2438 37.8029 69.7442C37.3294 68.9997 36.9912 68.3029 36.7417 67.6435C30.8865 69.5308 22.9827 73.3316 22.5511 87.5662C21.9868 106.161 40.0925 115.775 53.3689 110.818C58.0081 105.572 62.6937 99.8782 59.4324 93.4036C59.4644 93.3204 55.3215 87.76 51.8727 83.1033ZM73.1887 68.2558C73.4539 67.9591 73.753 67.6854 74.0932 67.4483C74.7338 67.0004 77.5347 64.1839 80.7085 61.442C78.6338 57.1625 75.6683 52.828 71.4804 48.7305C73.623 46.8563 73.8444 44.0922 73.8444 44.0922C73.4957 41.8218 69.9509 46.263 68.2256 45.0509C68.2191 45.0463 68.2119 45.043 68.2053 45.0385C66.4826 43.7772 64.2877 43.1708 62.0138 43.5231C61.7631 43.5624 61.5169 43.6135 61.2746 43.6737C61.2099 43.6901 61.1479 43.7111 61.0839 43.7281C60.9102 43.7759 60.7378 43.8257 60.5693 43.8839C60.4831 43.9134 60.3995 43.9481 60.3153 43.9802C60.1788 44.0326 60.043 44.0863 59.9097 44.1452C59.802 44.1937 59.6968 44.2448 59.5917 44.2972C59.5329 44.326 59.4755 44.3567 59.4173 44.3875L59.416 44.3823C59.3677 44.4052 59.3213 44.4327 59.2743 44.4589C59.224 44.4864 59.1725 44.5133 59.1241 44.5401C56.8261 45.8668 55.2738 48.2459 55.0041 50.9276C53.4877 53.7749 49.924 59.8048 45.1163 63.7392C49.0999 66.6749 53.7653 70.7907 56.3089 73.1973L56.3539 73.1646L60.7593 69.9734L61.1309 70.3415L58.8531 63.2415C58.4064 62.882 57.9885 62.4852 57.6228 62.0392C57.485 61.8716 57.3505 61.698 57.2264 61.5192C57.2251 61.5173 57.2244 61.5153 57.2231 61.514C57.2101 61.4446 56.188 55.7061 57.611 54.5614C58.4757 53.8659 60.0149 57.6693 60.0149 57.6693C60.0149 57.6693 60.0534 56.4906 59.9313 55.6976C59.8092 54.9032 59.6453 53.5739 61.114 51.3683C61.624 50.6021 61.6011 49.6303 61.3608 48.688C62.5422 49.7705 64.5594 50.792 67.8612 50.3238C69.2515 50.1267 70.3206 49.6395 71.1414 49.0193C71.306 49.4928 71.436 49.9852 71.515 50.4986L72.279 55.4618C72.3816 56.1245 72.4697 56.7656 72.5278 57.3864C72.5977 58.0911 72.6323 58.763 72.6167 59.3955C72.5644 61.7 71.8389 63.4668 69.6107 64.2159C69.2646 64.3338 68.893 64.434 68.4744 64.4988L65.3209 64.988C65.153 65.0136 64.9832 65.0325 64.8167 65.047C65.0211 65.5748 65.2333 65.9408 65.4626 65.9055L68.6155 65.417C68.7004 65.4503 68.9257 70.1954 68.9257 70.1954L73.6602 82.7405L68.923 70.0317L70.907 69.2059L73.1887 68.2558ZM292.432 68.1051C292.432 68.1051 288.022 73.471 282.048 76.9712C282.022 76.9856 281.996 77.0007 281.97 77.0158C281.313 77.3982 280.638 77.7571 279.946 78.0845C277.894 79.0556 275.711 79.7439 273.494 79.8926C270.358 80.1021 267.764 79.8395 265.677 79.389C261.246 78.4322 259.127 76.6183 259.127 76.6183H255.861C255.861 76.6183 259.8 83.0306 266.819 85.1511C267.886 85.4739 269.021 85.6998 270.228 85.7863C273.525 86.022 278.009 84.4674 282.397 82.3869C290.179 78.6961 297.656 73.344 297.656 73.344L298.309 68.1051H292.432Z" fill="#FBC02D"/>
<path d="M193.822 5.23885C190.453 5.23885 190.453 0 193.822 0C197.191 0 197.191 5.23885 193.822 5.23885ZM193.921 8.2525C193.078 8.2525 193.078 9.56222 193.921 9.56222C194.762 9.56222 194.762 8.2525 193.921 8.2525ZM280.452 213.576C279.618 212.783 278.363 209.47 278.363 209.47L295.419 159.72L287.416 125.171C290.386 123.682 292.054 119.555 292.432 119.511C288.187 112.307 283.497 101.423 283.166 96.3078C283.166 96.3078 282.857 89.0566 282.397 82.3856C278.009 84.4667 273.525 86.0214 270.228 85.785C269.021 85.6985 267.886 85.4726 266.819 85.1497C269.076 96.264 272.471 111.174 276.17 117.877L256.15 117.424C256.273 117.045 256.395 116.653 256.514 116.236C255.217 101.28 255.477 85.895 251.789 73.6072C251.764 73.5214 251.742 73.4317 251.716 73.3466L250.803 73.4821L248.65 73.8011L248.637 73.8017L227.157 73.1554H227.155C227.003 73.0067 226.798 72.824 226.564 72.6177C226.536 72.5928 226.513 72.5725 226.484 72.547C226.457 72.5241 226.426 72.4992 226.398 72.4756C226.334 72.4226 226.272 72.3695 226.203 72.3139C226.199 72.3093 226.191 72.3041 226.186 72.3001C226.169 72.2857 226.151 72.27 226.131 72.2549C226.009 72.1508 225.877 72.0415 225.737 71.9314C225.234 71.5228 224.646 71.0631 223.988 70.5687C223.838 70.4521 223.681 70.3342 223.523 70.2164C223.236 70.0009 222.933 69.7783 222.626 69.553C222.521 69.477 222.416 69.4004 222.31 69.3225C222.068 69.147 221.821 68.9702 221.571 68.7914C221.499 68.741 221.432 68.6919 221.36 68.6408C221.25 68.5642 221.138 68.4843 221.025 68.405C220.976 68.3703 220.928 68.3369 220.878 68.3022C220.07 67.7384 219.227 67.1588 218.367 66.5885C218.329 66.5636 218.293 66.538 218.255 66.5132C218.197 66.4771 218.143 66.4398 218.087 66.4038C218.025 66.3632 217.961 66.3232 217.898 66.2813L217.175 65.8111C216.835 65.5937 216.493 65.3763 216.149 65.1615C216.102 65.1294 216.05 65.1013 216.003 65.0692C215.948 65.0351 215.896 65.0011 215.842 64.9683C215.73 64.8989 215.617 64.8308 215.507 64.7575C215.48 64.7418 215.45 64.7247 215.421 64.7084C215.397 64.6946 215.374 64.6822 215.349 64.6671C215.233 64.597 215.115 64.5224 214.998 64.4517C214.994 64.4497 214.99 64.4471 214.987 64.4451C214.929 64.4078 214.87 64.377 214.812 64.339C214.794 64.3279 214.774 64.3174 214.756 64.3063C214.593 64.21 214.43 64.1144 214.266 64.0182C214.217 63.9933 214.17 63.9618 214.125 63.9337C213.694 63.6829 213.267 63.4373 212.841 63.2009C212.835 63.1976 212.828 63.1937 212.823 63.1904C212.793 63.174 212.762 63.157 212.732 63.14C212.645 63.0928 212.558 63.045 212.474 62.9985C212.461 62.9913 212.453 62.9868 212.444 62.9815C212.437 62.9776 212.429 62.9723 212.422 62.9691C212.38 62.9455 212.335 62.9226 212.29 62.899C212.26 62.8833 212.229 62.8676 212.2 62.8512C212.058 62.7739 211.916 62.698 211.777 62.6259C211.489 62.4773 211.212 62.3345 210.936 62.197C210.9 62.1787 210.861 62.1577 210.824 62.14C210.769 62.1145 210.714 62.0896 210.666 62.0647C210.665 62.0647 210.664 62.0641 210.663 62.0634C210.662 62.0634 210.661 62.0627 210.66 62.0621C210.548 62.0058 210.44 61.9554 210.332 61.9043C210.291 61.8846 210.247 61.863 210.206 61.8434C210.138 61.8126 210.073 61.7831 210.006 61.753C209.961 61.7327 209.916 61.7117 209.871 61.6921C209.596 61.5644 209.332 61.4531 209.07 61.345C209.056 61.3391 209.039 61.3313 209.025 61.3254C209.025 61.3254 209.024 61.326 209.024 61.3267C208.446 63.2539 207.238 64.9526 205.615 66.1327C205.603 66.1419 205.592 66.1517 205.579 66.1608L205.786 66.5793C205.855 66.7188 205.928 66.8622 206.004 67.0023C206.104 67.1975 206.211 67.4005 206.319 67.5976C206.449 67.836 206.583 68.0796 206.724 68.3238C206.743 68.3625 206.76 68.3952 206.784 68.4306L206.982 68.7783C207.046 68.8896 207.112 68.9977 207.179 69.1136C207.202 69.1483 207.224 69.1915 207.25 69.238C207.339 69.388 207.432 69.5438 207.526 69.699C207.567 69.7599 207.605 69.8254 207.645 69.8942C207.732 70.0402 207.823 70.1836 207.918 70.3316C207.975 70.4338 208.036 70.534 208.102 70.6302C208.163 70.7304 208.228 70.8339 208.292 70.9374C208.328 70.9904 208.359 71.0461 208.395 71.0985C208.471 71.2196 208.555 71.3427 208.634 71.4685C208.655 71.4999 208.679 71.5346 208.695 71.568C208.847 71.7998 209.001 72.0349 209.152 72.2661L209.191 72.3224C209.312 72.5097 209.438 72.6944 209.565 72.8829C212.637 77.4597 216.15 81.8565 217.466 83.138C217.797 83.4641 219.393 84.1989 221.648 85.1255C229.023 88.1725 244.758 88.075 244.758 88.075C245.307 90.5778 245.491 95.1749 245.576 100.28C245.748 110.552 245.516 122.888 247.043 124.42C247.045 124.42 247.047 124.42 247.049 124.42C243.989 128.763 240.141 134.197 237.372 138.001C232.047 145.318 248.503 173.426 248.503 173.426L254.43 171.8C254.43 171.8 251.136 150.622 251.663 146.241C251.891 144.362 268.457 130.182 268.457 130.182L278.963 163.065L272.887 209.519L270.517 214.097L283.994 219.489C283.994 219.489 287.017 220.783 287.561 219.253C288.398 216.9 282.22 215.261 280.452 213.576ZM247.223 176.955C245.283 178.435 238.962 179.386 239.536 181.819C239.91 183.4 243.056 182.445 243.056 182.445L257.041 178.565L254.432 171.803L249.748 173.102C249.749 173.102 248.139 176.258 247.223 176.955ZM265.676 79.3896C267.763 79.8401 270.357 80.1027 273.493 79.8932C275.711 79.7445 277.894 79.0569 279.946 78.0851C280.638 77.7577 281.313 77.3988 281.97 77.0164C281.996 77.0013 282.022 76.9869 282.048 76.9719L293.447 52.6675L293.201 52.4789C294.863 49.98 294.766 46.5577 292.736 44.0797C291.054 42.0228 283.31 34.8436 277.594 31.2242C277.444 31.1293 277.294 31.0343 277.147 30.9446C275.784 32.7232 274.303 34.3728 272.724 35.8979C272.667 35.9523 272.613 36.0099 272.556 36.0643C274.508 41.0988 277.924 47.0973 279.93 50.0618L268.899 70.8012L264.363 71.4724L264.052 71.5182C264.073 71.5405 264.101 71.6197 264.137 71.7415C264.367 72.5398 264.903 75.4055 265.676 79.3896ZM128.518 64.176C125.149 64.176 125.149 69.4148 128.518 69.4148C131.887 69.4148 131.887 64.176 128.518 64.176ZM259.234 37.2659C262.603 37.2659 262.603 32.0271 259.234 32.0271C255.865 32.0271 255.865 37.2659 259.234 37.2659ZM57.7454 207.978C57.0649 207.049 56.4145 203.566 56.4145 203.566L56.2473 203.461L52.5811 201.168L52.2912 200.987L47.8759 206.729L60.1878 214.429C60.1878 214.429 62.9345 216.238 63.7397 214.83C64.9792 212.66 59.188 209.949 57.7454 207.978ZM0.28669 171.557C0.28669 171.557 -0.66806 174.711 0.907082 175.087C3.33314 175.666 4.28919 169.329 5.76573 167.384C6.33779 166.63 8.56532 165.409 9.33983 164.998C9.50701 164.909 9.6102 164.856 9.6102 164.856L10.8725 160.298L10.9104 160.161L4.16969 157.538L0.28669 171.557ZM97.8429 37.5646C93.8195 42.2749 87.6888 53.6315 86.8503 55.6825C86.6622 56.1428 86.5492 56.6137 86.4956 57.0845C84.6939 58.1467 82.6335 59.7799 80.709 61.4419C77.5352 64.1838 74.7343 67.0004 74.0937 67.4483C73.7534 67.6853 73.4544 67.9597 73.1892 68.2557L70.9088 69.2053C72.6701 77.5292 78.1902 84.6926 79.6491 93.0467C79.7732 93.7559 79.8862 94.4651 79.9985 95.1736C80.9755 101.334 81.4868 107.469 81.172 113.654C81.1466 114.155 81.1296 114.656 81.0924 115.158L74.6246 114.418C73.4922 114.548 72.3657 114.677 71.2738 114.802C71.2915 114.549 71.3098 114.295 71.3261 114.041C71.5938 109.854 71.6435 105.621 71.3202 101.442C71.1282 98.9626 70.8063 96.503 70.3165 94.0859C68.6917 86.0665 65.5369 78.1028 57.7996 74.3282C57.1622 74.0172 56.6914 73.617 56.3551 73.1652L56.31 73.1979C53.7657 70.7913 49.1004 66.6756 45.1175 63.7398C45.0515 63.6914 44.9849 63.6416 44.9203 63.5938C45.0613 60.1178 45.3127 45.6894 44.1177 40.5461C44.07 40.3405 44.0204 40.1447 43.9681 39.9698C43.9407 39.9705 43.9139 39.9751 43.8865 39.9757C42.5432 39.9928 41.2508 39.7564 40.0368 39.3346C39.7958 39.2508 39.5536 39.1716 39.3198 39.0727C39.2669 39.2665 39.214 39.4721 39.1624 39.7033C38.1717 44.1236 36.1114 62.4406 36.0395 63.5853C36.0049 64.1328 36.0761 64.6619 36.2263 65.1569C36.2439 65.9041 36.3981 66.7332 36.7429 67.6447C36.9923 68.3035 37.3299 69.0003 37.8041 69.7455C40.6644 74.245 49.3002 80.8316 50.1942 81.8427C50.6788 82.3902 51.2528 82.8112 51.8739 83.1046C55.3226 87.7613 59.4655 93.3223 59.4335 93.4055C62.6948 99.8801 58.0099 105.574 53.37 110.82C47.5651 117.383 41.8386 123.247 51.8314 129.059L46.2871 137.13C46.2871 137.13 46.6319 137.592 47.2843 138.352C49.1102 140.481 53.3576 144.958 59.2781 148.263C59.5654 148.423 59.8567 148.582 60.1525 148.737C60.7729 149.061 61.407 149.336 62.0483 149.575C68.7204 152.066 76.2507 150.214 78.8256 149.436C79.4147 149.258 79.751 149.135 79.751 149.135C79.751 149.135 83.4734 134.024 84.6939 127.459C84.8297 126.731 84.88 126.015 84.882 125.315C88.1811 130.512 89.2012 120.183 89.1627 119.542C88.9994 116.851 88.6415 114.631 88.1759 112.724C88.1204 112.496 88.0649 112.269 88.0068 112.05C86.1358 105.04 82.8399 102.379 82.932 95.6392C82.9418 95.3393 82.9457 95.0485 82.9627 94.7362C83.0241 93.6314 83.205 92.433 83.4427 91.27C83.7391 89.8202 84.1244 88.426 84.4993 87.3487C85.7584 83.73 85.0609 80.3005 80.4432 76.759C80.28 76.634 80.1363 76.3976 80.0024 76.0878C80.0233 76.0741 80.0449 76.0629 80.0658 76.0485C80.7097 75.5986 82.354 74.2378 84.3693 72.452C87.931 69.2963 92.6558 64.8066 95.1158 61.6181C95.7101 61.0995 96.1992 60.442 96.5186 59.6614C97.3538 57.6189 100.92 45.305 101.379 39.0936C101.39 38.9358 101.401 38.7787 101.409 38.6287C100.24 38.3419 99.1379 37.8645 98.1518 37.2129C98.0499 37.3229 97.9474 37.4434 97.8429 37.5646Z" fill="#2B6CAA"/>
</svg>
