<svg width="14" height="13" viewBox="0 0 14 13" fill="none" xmlns="http://www.w3.org/2000/svg">
<path d="M13.7904 4.93644C13.7429 4.79188 13.6163 4.68653 13.4639 4.66471L9.18263 4.05079L7.26794 0.222545C7.19981 0.0862656 7.05915 0 6.90516 0C6.75114 0 6.6105 0.0862656 6.54234 0.222545L4.62758 4.05079L0.346412 4.66471C0.194041 4.68653 0.0674022 4.79188 0.0198216 4.93641C-0.0277858 5.08097 0.0119185 5.23963 0.122211 5.3457L3.22001 8.32558L2.48883 12.5333C2.46277 12.6831 2.52519 12.8344 2.64978 12.9238C2.72026 12.9743 2.80374 13 2.88763 13C2.95204 13 3.01666 12.9849 3.07584 12.9541L6.90513 10.9675L10.7343 12.9541C10.8706 13.0248 11.0358 13.0131 11.1603 12.9237C11.2849 12.8344 11.3474 12.683 11.3214 12.5332L10.5899 8.32558L13.6881 5.34567C13.7983 5.23963 13.8381 5.08097 13.7904 4.93644Z" fill="#FFBA00"/>
</svg>
